# xmcd
#
# Track frame offsets:
#	150
#	10310
#	27286
#	46876
#	58713
#	67989
#	76883
#	93454
#	101485
#	122204
#	134731
#	146085
#	159946
#	182950
#	200904
#	213392
#	227275
#	242741
#	251282
#	266513
#
# Disc length: 3715 seconds
# Revision: 0
# Processed by: cddbd v1.5.2PL0 Copyright (c) Steve Scherf et al.
# Submitted via: dBpowerAMP V12.0
#
DISCID=190e8114
DTITLE=Roy Rogers - Sunset Trail
DYEAR=1997
DGENRE=Country Gospel
TTITLE0=This Land Is Your Land
TTITLE1=The Cowboy's Prayer
TTITLE2=Kristofferson Medley: One Day at a Time/Why Me Lord?
TTITLE3=This Little Light of Mine
TTITLE4=Read It and Pray/You're a Grand Old Flag
TTITLE5=Wings of a Dove
TTITLE6=Angel Unaware
TTITLE7=Jesus in the Morning
TTITLE8=Hope Medley: Whispering Hope/Star of Hope
TTITLE9=Softly and Tenderly
TTITLE10=God Bless America
TTITLE11=Prayer for America
TTITLE12=Heart of the Country
TTITLE13=I Am the United States/America the Beautiful
TTITLE14=Peace in the Valley
TTITLE15=Spiritual Medley: Wake Up Jacob/Get on Board Little Children
TTITLE16=If I Can Help Somebody
TTITLE17=I'll Fly Away
TTITLE18=The King Is Coming
TTITLE19=The Sweet by and by
EXTD=
EXTT0=
EXTT1=
EXTT2=
EXTT3=
EXTT4=
EXTT5=
EXTT6=
EXTT7=
EXTT8=
EXTT9=
EXTT10=
EXTT11=
EXTT12=
EXTT13=
EXTT14=
EXTT15=
EXTT16=
EXTT17=
EXTT18=
EXTT19=
PLAYORDER=
